<svg xmlns="http://www.w3.org/2000/svg" viewBox="0 0 48 48"><defs><style>.a{fill:none;stroke:#231f20;stroke-miterlimit:10;stroke-width:2px;}</style></defs><title>consoles</title><rect class="a" x="5" y="31" width="38" height="10" rx="1" ry="1"/><path class="a" d="M7,41H41a0,0,0,0,1,0,0v3a1,1,0,0,1-1,1H8a1,1,0,0,1-1-1V41A0,0,0,0,1,7,41Z"/><line class="a" x1="6" y1="29" x2="12" y2="29"/><polyline class="a" points="17 28 17 25 31 25 31 28"/><path class="a" d="M27,25H21V4.24A1.16,1.16,0,0,1,22,3h4.1a1.16,1.16,0,0,1,1,1.24Z"/><polyline class="a" points="33 31 33 28 15 28 15 31"/></svg>